# xmcd
#
# Track frame offsets: 
#        150
#        14527
#        30802
#        45127
#        59902
#        77827
#        93427
#        107302
#        122002
#        138577
#        151927
#        169177
#        186577
#        202777
#        219352
#        234052
#
# Disc length: 3345 seconds
#
# Revision: 0
# Processed by: cddbd v1.5.2PL0 Copyright (c) Steve Scherf et al.
# Submitted via: ExactAudioCopyFreeDBPlugin 1.0
#
DISCID=c40d0f10
DTITLE=Hansi Hinterseer - Im Siebten Himmel
DYEAR=1900
DGENRE=Country
TTITLE0=Im siebten Himmel
TTITLE1=Pulverschnee, Sonnenschein und die Liebe dazu
TTITLE2=Glocken der Herimat
TTITLE3=Freiheit wohnt überall
TTITLE4=Hinterher
TTITLE5=Alles im Lot
TTITLE6=Du allein
TTITLE7=Schenk mir dein Lächeln
TTITLE8=Fühl dich geborgen
TTITLE9=Jetzt samma do
TTITLE10=Was damals war
TTITLE11=Dankeschön
TTITLE12=Mich rufen die Berge
TTITLE13=Jemand wie du
TTITLE14=Zwoa Bliamerln stehn am Wiesenrand
TTITLE15=Ich denke die ganze Zeit an dich
EXTD=
EXTT0=
EXTT1=
EXTT2=
EXTT3=
EXTT4=
EXTT5=
EXTT6=
EXTT7=
EXTT8=
EXTT9=
EXTT10=
EXTT11=
EXTT12=
EXTT13=
EXTT14=
EXTT15=
PLAYORDER=
